<svg xmlns="http://www.w3.org/2000/svg" width="1080" height="1440" viewBox="0 0 1080 1440" font-family="'PingFang SC','Microsoft YaHei','Songti SC','STSong',serif">
  <defs>
    <linearGradient id="bg" x1="0" y1="0" x2="1" y2="1">
      <stop offset="0" stop-color="#0f1f4b"/>
      <stop offset="0.55" stop-color="#1a3b8b"/>
      <stop offset="1" stop-color="#3a2380"/>
    </linearGradient>
    <radialGradient id="glow" cx="0.5" cy="0.42" r="0.6">
      <stop offset="0" stop-color="#4a2f9e" stop-opacity="0.55"/>
      <stop offset="1" stop-color="#4a2f9e" stop-opacity="0"/>
    </radialGradient>
    <linearGradient id="needle" x1="0" y1="0" x2="0" y2="1">
      <stop offset="0" stop-color="#f4c56b"/>
      <stop offset="1" stop-color="#e08a2c"/>
    </linearGradient>
  </defs>

  <rect width="1080" height="1440" fill="url(#bg)"/>
  <rect width="1080" height="1440" fill="url(#glow)"/>

  <g opacity="0.14" fill="none" stroke="#ffffff" stroke-width="1.2">
    <circle cx="540" cy="430" r="300"/>
    <circle cx="540" cy="430" r="248"/>
    <circle cx="540" cy="430" r="190"/>
  </g>

  <g stroke="#9fb6e6" stroke-width="1" opacity="0.45">
    <line x1="540" y1="96" x2="540" y2="142"/>
    <line x1="212" y1="430" x2="258" y2="430"/>
    <line x1="822" y1="430" x2="868" y2="430"/>
  </g>
  <g fill="#c7d4f2" font-size="26" font-family="'PingFang SC',sans-serif" opacity="0.7">
    <text x="540" y="84" text-anchor="middle">北</text>
    <text x="184" y="442" text-anchor="middle">西</text>
    <text x="896" y="442" text-anchor="middle">东</text>
  </g>

  <g transform="translate(540 430)">
    <circle r="132" fill="#0d1a40" opacity="0.5"/>
    <circle r="132" fill="none" stroke="#f4c56b" stroke-width="2" opacity="0.85"/>
    <polygon points="0,-192 24,0 0,40 -24,0" fill="url(#needle)"/>
    <polygon points="0,132 24,0 0,-40 -24,0" fill="#9fb6e6" opacity="0.65"/>
    <circle r="15" fill="#0f1f4b" stroke="#f4c56b" stroke-width="3"/>
  </g>

  <text x="540" y="760" text-anchor="middle" font-size="230" font-weight="700" fill="#ffffff" letter-spacing="24">知微</text>

  <g font-family="'PingFang SC',sans-serif">
    <text x="540" y="852" text-anchor="middle" font-size="40" fill="#f4c56b" letter-spacing="10">ZHI&#160;WEI</text>
    <text x="540" y="946" text-anchor="middle" font-size="46" fill="#e8eefb" font-weight="600" letter-spacing="4">数据驱动的选题命中系统</text>
    <text x="540" y="1012" text-anchor="middle" font-size="30" fill="#aebde4" letter-spacing="2">知微知彰　见数据里的爆款苗头</text>
  </g>

  <line x1="360" y1="1096" x2="720" y2="1096" stroke="#5c6fa8" stroke-width="1.2" opacity="0.6"/>

  <g font-family="'PingFang SC',sans-serif" fill="#c7d4f2" font-size="30" text-anchor="middle" letter-spacing="1">
    <text x="540" y="1164">选题评分 · 多平台改写 · 命中率复盘 · 定时闭环</text>
  </g>

  <g font-family="'PingFang SC',sans-serif" text-anchor="middle">
    <text x="540" y="1322" font-size="28" fill="#8ea0d0" letter-spacing="2">AI 黑客松 · 基于 WorkBuddy + EdgeOne Makers</text>
    <text x="540" y="1374" font-size="26" fill="#6f82b8">topic.yeranyang.com</text>
  </g>
</svg>
