<svg xmlns="http://www.w3.org/2000/svg" width="1600" height="900" viewBox="0 0 1600 900" font-family="'PingFang SC','Microsoft YaHei','Songti SC','STSong',serif">
  <defs>
    <linearGradient id="bg" x1="0" y1="0" x2="1" y2="1">
      <stop offset="0" stop-color="#0f1f4b"/>
      <stop offset="0.55" stop-color="#1a3b8b"/>
      <stop offset="1" stop-color="#3a2380"/>
    </linearGradient>
    <radialGradient id="glow" cx="0.33" cy="0.5" r="0.55">
      <stop offset="0" stop-color="#4a2f9e" stop-opacity="0.5"/>
      <stop offset="1" stop-color="#4a2f9e" stop-opacity="0"/>
    </radialGradient>
    <linearGradient id="needle" x1="0" y1="0" x2="0" y2="1">
      <stop offset="0" stop-color="#f4c56b"/>
      <stop offset="1" stop-color="#e08a2c"/>
    </linearGradient>
  </defs>

  <rect width="1600" height="900" fill="url(#bg)"/>
  <rect width="1600" height="900" fill="url(#glow)"/>

  <g opacity="0.13" fill="none" stroke="#ffffff" stroke-width="1.2">
    <circle cx="470" cy="450" r="300"/>
    <circle cx="470" cy="450" r="246"/>
    <circle cx="470" cy="450" r="188"/>
  </g>
  <g stroke="#9fb6e6" stroke-width="1" opacity="0.4">
    <line x1="470" y1="118" x2="470" y2="162"/>
    <line x1="254" y1="450" x2="298" y2="450"/>
    <line x1="642" y1="450" x2="686" y2="450"/>
  </g>
  <g fill="#c7d4f2" font-size="24" font-family="'PingFang SC',sans-serif" opacity="0.7">
    <text x="470" y="106" text-anchor="middle">北</text>
    <text x="226" y="461" text-anchor="middle">西</text>
    <text x="714" y="461" text-anchor="middle">东</text>
  </g>
  <g transform="translate(470 450)">
    <circle r="130" fill="#0d1a40" opacity="0.5"/>
    <circle r="130" fill="none" stroke="#f4c56b" stroke-width="2" opacity="0.85"/>
    <polygon points="0,-190 24,0 0,40 -24,0" fill="url(#needle)"/>
    <polygon points="0,130 24,0 0,-40 -24,0" fill="#9fb6e6" opacity="0.65"/>
    <circle r="15" fill="#0f1f4b" stroke="#f4c56b" stroke-width="3"/>
  </g>

  <g text-anchor="start">
    <text x="770" y="360" font-size="200" font-weight="700" fill="#ffffff" letter-spacing="20">知微</text>
    <text x="778" y="430" font-family="'PingFang SC',sans-serif" font-size="34" fill="#f4c56b" letter-spacing="10">ZHI&#160;WEI</text>
    <text x="778" y="512" font-family="'PingFang SC',sans-serif" font-size="44" fill="#e8eefb" font-weight="600" letter-spacing="3">数据驱动的选题命中系统</text>
    <text x="778" y="566" font-family="'PingFang SC',sans-serif" font-size="27" fill="#aebde4" letter-spacing="2">知微知彰　见数据里的爆款苗头</text>
    <line x1="778" y1="612" x2="1420" y2="612" stroke="#5c6fa8" stroke-width="1.2" opacity="0.55"/>
    <text x="778" y="666" font-family="'PingFang SC',sans-serif" font-size="27" fill="#c7d4f2" letter-spacing="1">选题评分 · 多平台改写 · 命中率复盘 · 定时闭环</text>
  </g>

  <g font-family="'PingFang SC',sans-serif" text-anchor="middle">
    <text x="800" y="820" font-size="26" fill="#8ea0d0" letter-spacing="2">AI 黑客松 · 基于 WorkBuddy + EdgeOne Makers　|　topic.yeranyang.com</text>
  </g>
</svg>
